<svg viewBox="0 0 848 172">
  <rect width="848" height="172" rx="64" ry="64"/>
  <path d="M653.56 119.08h-21.72V51.96h22.44c6.56 0 12.24 1.36 16.96 4.04 4.72 2.68 8.32 6.52 10.84 11.52 2.52 5 3.8 10.96 3.8 17.92s-1.28 13-3.84 18.04c-2.52 5.04-6.2 8.88-11 11.6-4.8 2.68-10.64 4.04-17.44 4.04l-.04-.04Zm-11.6-8.84H653c5.12 0 9.36-.96 12.76-2.88 3.4-1.96 5.92-4.76 7.6-8.44 1.68-3.68 2.52-8.2 2.52-13.52s-.84-9.72-2.52-13.4c-1.68-3.68-4.16-6.44-7.44-8.36-3.32-1.92-7.4-2.84-12.28-2.84h-11.68v49.44Zm-28.24-58.28h10.16v44.16c0 4.68-1.12 8.88-3.32 12.48-2.2 3.6-5.32 6.44-9.32 8.52-4 2.04-8.68 3.08-14.08 3.08s-10.04-1.04-14.04-3.08c-4-2.08-7.12-4.92-9.32-8.52-2.2-3.64-3.32-7.8-3.32-12.48V51.96h10.12v43.32c0 3.04.68 5.72 2 8.08 1.36 2.36 3.28 4.2 5.72 5.56 2.48 1.32 5.4 2 8.8 2s6.36-.68 8.8-2c2.48-1.36 4.4-3.2 5.72-5.56s2-5.04 2-8.08V51.96h.08Z" class="cls-3"/>
  <path d="M527.84 110.16c12.96 0 24.04-10.76 24.04-24.52s-11.12-24.52-24.04-24.52-24.36 10.64-24.36 24.4 11.4 24.64 24.36 24.64Zm0 10.08c18.72 0 33.88-15.48 33.88-34.6s-15.16-34.6-33.88-34.6-33.88 15.48-33.88 34.6 15.16 34.6 33.88 34.6Z" class="cls-4"/>
  <path d="M353.72 110.04c12.96 0 24.16-10.72 24.16-24.48S366.64 61 353.72 61 329.6 71.76 329.6 85.52s11.2 24.52 24.12 24.52Zm0 10.08c18.72 0 33.88-15.48 33.88-34.6s-15.16-34.6-33.88-34.6-33.88 15.48-33.88 34.6 15.16 34.6 33.88 34.6Z" class="cls-2"/>
  <path d="M281 51.96v67.12h10.2V51.96H281ZM164 52v67.12h10.2V52H164Zm135.4-.04v67.12h10.2V51.96h-10.2Zm-97 .04v67.12h10.2V52h-10.2Z" class="cls-1"/>
  <path d="M484.92 51.96 460 120h10.2l24.96-68.04h-10.24Z" class="cls-3"/>
  <path d="m272.6 52.04-10.68 10.24h-41.56v-10.2l52.24-.04Zm-61.6 28-5.44 10.2H164v-10.2h47Z" class="cls-1"/>
  <path d="M447.28 50.76c9.36 0 17.84 3.88 23.92 10.16l-3.96 10.84c-4.36-6.6-11.76-10.88-19.96-10.88-12.92 0-24.36 10.64-24.36 24.4s11.44 24.64 24.36 24.64c2.2 0 4.32-.32 6.36-.88l-4 10.84c-.76.08-1.56.12-2.36.12-18.72 0-33.88-15.48-33.88-34.6s15.16-34.64 33.88-34.64Z" class="cls-4"/>
  <path d="M245.16 120.08c14.48 0 26.28-12.04 26.28-26.76 0-9.36-4.8-17.96-12.44-22.72l-1.76 1.68-5.21 4.98C258.46 79.85 263 86.14 263 93.5c0 9.67-7.84 17.5-17.5 17.5-7.63 0-14.11-4.88-16.51-11.68l-6.91 6.6c4.4 8.4 13.12 14.16 23.08 14.16Z" class="cls-2"/>
</svg>
